<?xml version="1.0" encoding="utf-8"?><svg xmlns="http://www.w3.org/2000/svg" xmlns:xlink="http://www.w3.org/1999/xlink"><symbol viewBox="0 0 28 21" id="chk" xmlns="http://www.w3.org/2000/svg"><path d="m2 9.726 8.5 8.774L26 2.5"/></symbol><symbol viewBox="0 0 50 50" id="cross" xmlns="http://www.w3.org/2000/svg"><path d="M24.785 2v46M2 25h46"/></symbol><symbol viewBox="0 0 53 62" id="play_triangle" xmlns="http://www.w3.org/2000/svg"><path d="M53 31 .5 61.31V.69L53 31Z"/></symbol><symbol viewBox="0 0 49 49" id="star-4" xmlns="http://www.w3.org/2000/svg"><path d="m24.5 0 4.85 19.65L49 24.5l-19.65 4.85L24.5 49l-4.85-19.65L0 24.5l19.65-4.85L24.5 0Z"/></symbol><symbol viewBox="0 0 62 62" id="star-4-black-tilt-left" xmlns="http://www.w3.org/2000/svg"><path d="m22.694 0 12.8 23.218L62 22.694l-23.218 12.8L39.306 62l-12.8-23.218L0 39.306l23.218-12.8L22.694 0Z"/></symbol><symbol viewBox="0 0 56 57" id="star-4-black-tilt-right" xmlns="http://www.w3.org/2000/svg"><path d="m35.503.5-1.98 24.811L56 36.003l-24.811-1.98L20.497 56.5l1.98-24.811L0 20.997l24.811 1.98L35.503.5Z"/></symbol><symbol viewBox="0 0 44 44" id="star-4-tilt-right" xmlns="http://www.w3.org/2000/svg"><path d="m27.895 0-.372 18.811L44 27.895l-18.811-.372L16.105 44l.372-18.811L0 16.105l18.811.372L27.895 0Z"/></symbol><symbol viewBox="0 0 40 40" id="tg" xmlns="http://www.w3.org/2000/svg"><g clip-path="url(#ha)"><path d="M34 0H6a6 6 0 0 0-6 6v28a6 6 0 0 0 6 6h28a6 6 0 0 0 6-6V6a6 6 0 0 0-6-6Z"/><path d="M15.547 31.563c-.86 0-.781-.313-1.016-1.094l-2.5-8.203 19.14-11.25"/><path d="M15.547 31.563c.547 0 .86-.313 1.25-.625l3.515-3.36-4.375-2.656"/><path d="m15.938 24.922 10.546 7.734c1.094.703 2.032.313 2.344-1.093l4.297-20.157c.39-1.718-.703-2.5-1.875-1.953L6.172 19.141c-1.64.625-1.64 1.64-.313 2.031l6.485 2.031 14.844-9.453c.703-.39 1.328-.234.859.313"/></g><defs><clipPath id="ha"><path d="M0 0h40v40H0z"/></clipPath></defs></symbol></svg>