<svg width="685" height="405" viewBox="0 0 685 405" fill="none" xmlns="http://www.w3.org/2000/svg" xmlns:xlink="http://www.w3.org/1999/xlink">
    <path d="M1 243.006V42.2804C1 19.4819 17.2546 1 37.3056 1H516.54C536.591 1 552.846 19.4819 552.846 42.2804V90.2689C552.846 113.067 569.1 131.549 589.151 131.549H647.694C667.745 131.549 684 150.031 684 172.83V362.72C684 385.518 667.745 404 647.694 404H181.167C161.116 404 144.861 385.518 144.861 362.72V325.567C144.861 302.769 128.607 284.287 108.555 284.287H37.3056C17.2546 284.287 1 265.805 1 243.006Z" fill="#D9D9D9" stroke="black"/>
</svg>
